M48
; DRILL file {KiCad (5.1.9)-1} date 02/01/22 09:31:00
; FORMAT={-:-/ absolute / inch / decimal}
; #@! TF.CreationDate,2022-02-01T09:31:00-08:00
; #@! TF.GenerationSoftware,Kicad,Pcbnew,(5.1.9)-1
; #@! TF.FileFunction,Plated,1,2,PTH
FMAT,2
INCH
T1C0.0157
T2C0.0315
T3C0.0394
%
G90
G05
T1
X1.7Y-0.925
T2
X1.45Y-0.975
X1.45Y-1.275
X1.45Y-1.375
X1.45Y-1.675
X2.05Y-0.975
X2.05Y-1.275
X2.05Y-1.375
X2.05Y-1.675
X2.225Y-1.425
X2.25Y-0.975
X2.25Y-1.275
X2.35Y-0.975
X2.35Y-1.275
X2.45Y-0.975
X2.45Y-1.275
X2.525Y-1.425
X2.625Y-0.975
X2.625Y-1.275
X3.275Y-0.975
X3.275Y-1.275
T3
X1.6Y-1.575
X1.6Y-1.675
X1.7Y-1.575
X1.7Y-1.675
X1.8Y-1.575
X1.8Y-1.675
X1.9Y-1.575
X1.9Y-1.675
X2.225Y-1.675
X2.325Y-1.675
X2.425Y-1.675
X2.525Y-1.675
T0
M30
