%TF.GenerationSoftware,KiCad,Pcbnew,(5.1.9)-1*%
%TF.CreationDate,2022-02-01T09:31:05-08:00*%
%TF.ProjectId,midi_in_out_dev,6d696469-5f69-46e5-9f6f-75745f646576,1.0*%
%TF.SameCoordinates,Original*%
%TF.FileFunction,Soldermask,Top*%
%TF.FilePolarity,Negative*%
%FSLAX46Y46*%
G04 Gerber Fmt 4.6, Leading zero omitted, Abs format (unit mm)*
G04 Created by KiCad (PCBNEW (5.1.9)-1) date 2022-02-01 09:31:05*
%MOMM*%
%LPD*%
G01*
G04 APERTURE LIST*
%ADD10O,1.700000X1.700000*%
%ADD11R,1.700000X1.700000*%
%ADD12R,1.600000X1.600000*%
%ADD13O,1.600000X1.600000*%
%ADD14C,1.700000*%
%ADD15R,2.800000X2.800000*%
%ADD16R,2.800000X2.200000*%
%ADD17C,1.600000*%
G04 APERTURE END LIST*
D10*
%TO.C,REF\u002A\u002A*%
X48260000Y-40005000D03*
X48260000Y-42545000D03*
X45720000Y-40005000D03*
X45720000Y-42545000D03*
X43180000Y-40005000D03*
X43180000Y-42545000D03*
X40640000Y-40005000D03*
D11*
X40640000Y-42545000D03*
%TD*%
D12*
%TO.C,1N4148*%
X66675000Y-24765000D03*
D13*
X66675000Y-32385000D03*
%TD*%
D14*
%TO.C,J1*%
X44340000Y-32865000D03*
X44340000Y-25865000D03*
D15*
X40640000Y-34165000D03*
D16*
X40640000Y-24765000D03*
X48040000Y-26765000D03*
%TD*%
%TO.C,J2*%
X79155000Y-26765000D03*
X71755000Y-24765000D03*
D15*
X71755000Y-34165000D03*
D14*
X75455000Y-25865000D03*
X75455000Y-32865000D03*
%TD*%
D11*
%TO.C,G  TX  RX  +*%
X64135000Y-42545000D03*
D10*
X61595000Y-42545000D03*
X59055000Y-42545000D03*
X56515000Y-42545000D03*
%TD*%
D17*
%TO.C,10\u03A9*%
X36830000Y-24765000D03*
D13*
X36830000Y-32385000D03*
%TD*%
%TO.C,220\u03A9*%
X36830000Y-42545000D03*
D17*
X36830000Y-34925000D03*
%TD*%
%TO.C,33\u03A9*%
X52070000Y-24765000D03*
D13*
X52070000Y-32385000D03*
%TD*%
%TO.C,220\u03A9*%
X52070000Y-42545000D03*
D17*
X52070000Y-34925000D03*
%TD*%
%TO.C,220\u03A9*%
X83185000Y-24765000D03*
D13*
X83185000Y-32385000D03*
%TD*%
%TO.C,270\u03A9*%
X64135000Y-36195000D03*
D17*
X56515000Y-36195000D03*
%TD*%
D12*
%TO.C,H11L1*%
X62230000Y-24765000D03*
D13*
X57150000Y-32385000D03*
X59690000Y-24765000D03*
X59690000Y-32385000D03*
X57150000Y-24765000D03*
X62230000Y-32385000D03*
%TD*%
M02*
